<?xml version="1.0" encoding="UTF-8"?>
<svg id="Capa_1" data-name="Capa 1" xmlns="http://www.w3.org/2000/svg" viewBox="0 0 899.65 460.65">
  <defs>
    <style>
      .cls-1 {
        fill: #fff;
      }

      .cls-2 {
        fill: #009fe3;
      }
    </style>
  </defs>
  <path class="cls-1" d="M899.65,445.73c0,2.36-.59,4.49-1.76,6.38-1.18,1.89-3.31,3.43-6.41,4.61-3.1,1.18-7.21,2.13-12.33,2.83-5.13.71-11.65,1.06-19.55,1.06s-14.1-.36-19.23-1.06c-5.13-.71-9.19-1.65-12.18-2.83-2.99-1.18-5.13-2.71-6.41-4.61-1.28-1.89-1.92-4.01-1.92-6.38V72.63h-.64l-120.16,372.74c-.86,3.07-2.24,5.61-4.16,7.62-1.92,2.01-4.54,3.6-7.85,4.78-3.31,1.18-7.53,1.95-12.66,2.3-5.13.35-11.33.53-18.59.53s-13.46-.3-18.58-.89c-5.13-.59-9.35-1.53-12.66-2.84-3.31-1.3-5.93-2.89-7.85-4.78-1.92-1.89-3.21-4.13-3.85-6.73l-115.99-372.74h-.64v373.09c0,2.36-.59,4.49-1.76,6.38-1.18,1.89-3.36,3.43-6.57,4.61-3.2,1.18-7.32,2.13-12.34,2.83-5.02.71-11.48,1.06-19.39,1.06s-14.1-.36-19.23-1.06-9.24-1.65-12.34-2.83c-3.1-1.18-5.24-2.71-6.41-4.61-1.18-1.89-1.76-4.01-1.76-6.38V37.2c0-12.05,2.88-21.26,8.65-27.64,5.77-6.38,13.46-9.57,23.07-9.57h55.11c9.82,0,18.26.89,25.31,2.66,7.05,1.77,13.14,4.73,18.26,8.86,5.13,4.14,9.4,9.57,12.82,16.3,3.41,6.73,6.41,15.06,8.97,24.98l89.72,273.18h1.28l92.92-272.47c2.77-9.92,5.82-18.3,9.13-25.16,3.31-6.85,7.16-12.4,11.54-16.65,4.38-4.25,9.56-7.26,15.54-9.03,5.98-1.77,12.92-2.66,20.83-2.66h56.72c5.77,0,10.73.83,14.9,2.48,4.17,1.66,7.58,4.07,10.25,7.26,2.67,3.19,4.7,7.09,6.09,11.69,1.39,4.61,2.08,9.87,2.08,15.77v408.53Z"/>
  <path class="cls-2" d="M346.75,173.02c0,6.56-.35,12.07-1.05,16.52-.7,4.45-1.76,8.03-3.16,10.72-1.41,2.7-3.05,4.63-4.92,5.8-1.88,1.18-3.87,1.76-5.98,1.76h-109.33v119.17c0,2.34-.59,4.39-1.76,6.15-1.18,1.76-3.16,3.29-5.98,4.57-2.81,1.29-6.56,2.29-11.25,2.99-4.69.7-10.55,1.05-17.58,1.05s-12.89-.35-17.58-1.05c-4.69-.7-8.44-1.7-11.25-2.99-2.81-1.29-4.87-2.81-6.15-4.57-1.29-1.76-1.93-3.81-1.93-6.15v-119.17H39.87c-2.11,0-4.04-.58-5.8-1.76-1.76-1.17-3.34-3.1-4.75-5.8-1.41-2.69-2.52-6.27-3.34-10.72-.82-4.45-1.23-9.96-1.23-16.52s.35-11.78,1.05-16.35,1.7-8.2,2.99-10.9c1.29-2.69,2.75-4.62,4.39-5.8,1.64-1.17,3.52-1.76,5.62-1.76h110.03V19.4c0-2.34.64-4.51,1.93-6.5,1.29-1.99,3.34-3.63,6.15-4.92,2.81-1.29,6.56-2.28,11.25-2.99,4.69-.7,10.55-1.05,17.58-1.05s12.89.35,17.58,1.05c4.69.7,8.44,1.7,11.25,2.99,2.81,1.29,4.8,2.93,5.98,4.92,1.17,1.99,1.76,4.16,1.76,6.5v118.82h110.38c1.87,0,3.69.59,5.45,1.76,1.76,1.18,3.28,3.11,4.57,5.8,1.29,2.7,2.28,6.33,2.99,10.9s1.05,10.02,1.05,16.35Z"/>
  <g>
    <path class="cls-1" d="M71.63,370.59c0,2.34-.29,4.08-.87,5.2-.58,1.12-1.3,1.69-2.14,1.69h-8.33c1.16,1.17,2,2.5,2.5,3.99.5,1.49.75,3.04.75,4.65,0,3.81-.69,7.19-2.06,10.15-1.38,2.96-3.35,5.45-5.91,7.47-2.57,2.03-5.66,3.57-9.28,4.62-3.62,1.05-7.65,1.58-12.1,1.58-2.27,0-4.44-.26-6.5-.77-2.06-.51-3.65-1.11-4.76-1.79-.63.64-1.2,1.39-1.71,2.27-.5.88-.75,1.86-.75,2.93,0,1.42.67,2.58,2.02,3.48,1.35.9,3.24,1.4,5.67,1.5l17.21.59c4.02.15,7.6.67,10.75,1.58,3.15.9,5.79,2.17,7.93,3.81,2.14,1.64,3.78,3.6,4.92,5.9,1.14,2.3,1.71,4.91,1.71,7.84,0,3.22-.77,6.26-2.3,9.12-1.53,2.86-3.83,5.34-6.9,7.44-3.07,2.1-6.91,3.76-11.54,4.98-4.63,1.22-10.03,1.83-16.22,1.83s-11.17-.44-15.43-1.32c-4.26-.88-7.75-2.1-10.47-3.66-2.72-1.56-4.71-3.43-5.95-5.61-1.24-2.17-1.86-4.56-1.86-7.14,0-1.61.22-3.15.67-4.62.45-1.47,1.11-2.87,1.98-4.21.87-1.34,1.94-2.63,3.21-3.85,1.27-1.22,2.72-2.39,4.36-3.52-2.27-1.12-4.03-2.65-5.27-4.58-1.24-1.93-1.86-4.04-1.86-6.34,0-2.88.71-5.51,2.14-7.88,1.43-2.37,3.28-4.51,5.55-6.41-1.85-1.71-3.33-3.76-4.44-6.16-1.11-2.39-1.67-5.37-1.67-8.94,0-3.81.73-7.22,2.18-10.22,1.45-3,3.48-5.54,6.07-7.62,2.59-2.08,5.68-3.66,9.28-4.76,3.6-1.1,7.56-1.65,11.9-1.65,2.22,0,4.35.12,6.39.37,2.04.25,3.93.59,5.67,1.03h22.45c.9,0,1.63.54,2.18,1.61.56,1.08.83,2.88.83,5.42ZM50.69,438.22c0-2.2-.95-3.88-2.86-5.06-1.9-1.17-4.52-1.81-7.85-1.91l-14.2-.37c-1.38.93-2.47,1.82-3.29,2.67-.82.85-1.48,1.67-1.98,2.46-.5.78-.83,1.54-.99,2.27-.16.73-.24,1.49-.24,2.27,0,2.44,1.33,4.3,4.01,5.57,2.67,1.27,6.44,1.91,11.3,1.91,3.01,0,5.55-.28,7.61-.84,2.06-.56,3.73-1.31,5-2.24,1.27-.93,2.17-1.97,2.7-3.11.53-1.15.79-2.36.79-3.63ZM46.01,386.05c0-3.52-1.06-6.25-3.17-8.21-2.12-1.95-5.1-2.93-8.96-2.93-1.96,0-3.68.31-5.16.92-1.48.61-2.71,1.44-3.69,2.49-.98,1.05-1.71,2.27-2.18,3.66-.48,1.39-.71,2.85-.71,4.36,0,3.32,1.06,5.95,3.17,7.88,2.11,1.93,5.05,2.89,8.8,2.89,2.01,0,3.75-.29,5.24-.88,1.48-.59,2.71-1.39,3.69-2.42.98-1.03,1.72-2.21,2.22-3.55.5-1.34.75-2.75.75-4.21Z"/>
    <path class="cls-1" d="M130.33,372.13c0,1.76-.05,3.2-.16,4.32-.11,1.12-.27,2-.48,2.64-.21.64-.49,1.08-.83,1.32-.34.25-.78.37-1.31.37-.42,0-.9-.08-1.43-.26-.53-.17-1.12-.35-1.78-.55-.66-.19-1.39-.38-2.18-.55-.79-.17-1.67-.26-2.62-.26-1.11,0-2.22.21-3.33.62s-2.26,1.06-3.45,1.94c-1.19.88-2.43,2.05-3.73,3.52-1.3,1.47-2.68,3.27-4.16,5.42v40.74c0,.49-.16.92-.48,1.28-.32.37-.86.67-1.63.92-.77.25-1.78.43-3.05.55-1.27.12-2.88.18-4.84.18s-3.57-.06-4.84-.18c-1.27-.12-2.29-.3-3.05-.55-.77-.24-1.31-.55-1.63-.92s-.48-.79-.48-1.28v-65.36c0-.49.13-.92.4-1.28.26-.37.74-.67,1.43-.92.69-.24,1.57-.43,2.66-.55,1.08-.12,2.45-.18,4.08-.18s3.09.06,4.2.18,1.97.31,2.58.55c.61.24,1.04.55,1.31.92.26.37.4.79.4,1.28v8.13c1.85-2.44,3.6-4.46,5.24-6.05,1.64-1.59,3.2-2.84,4.68-3.77,1.48-.93,2.96-1.58,4.44-1.94,1.48-.37,2.96-.55,4.44-.55.69,0,1.43.04,2.22.11.79.07,1.61.2,2.46.37.85.17,1.59.37,2.22.59.63.22,1.1.45,1.39.7.29.25.5.51.63.81.13.29.25.7.36,1.21.1.51.18,1.28.24,2.31.05,1.03.08,2.42.08,4.18Z"/>
    <path class="cls-1" d="M212.19,398.07c0,5.57-.79,10.65-2.38,15.24-1.59,4.59-3.99,8.55-7.22,11.87-3.23,3.32-7.27,5.89-12.14,7.69-4.87,1.81-10.55,2.71-17.05,2.71s-11.77-.81-16.42-2.42c-4.65-1.61-8.51-3.96-11.58-7.04-3.07-3.08-5.34-6.86-6.82-11.36-1.48-4.49-2.22-9.62-2.22-15.39s.81-10.66,2.42-15.28c1.61-4.62,4.03-8.57,7.26-11.87,3.23-3.3,7.26-5.85,12.1-7.66,4.84-1.81,10.51-2.71,17.01-2.71s11.85.79,16.5,2.38c4.65,1.59,8.5,3.92,11.54,7,3.04,3.08,5.3,6.86,6.78,11.36,1.48,4.5,2.22,9.65,2.22,15.46ZM191.64,398.8c0-3.22-.28-6.19-.83-8.9-.56-2.71-1.49-5.07-2.82-7.07-1.32-2-3.08-3.57-5.27-4.69-2.19-1.12-4.96-1.69-8.29-1.69-2.96,0-5.55.5-7.77,1.5-2.22,1-4.05,2.47-5.47,4.4-1.43,1.93-2.5,4.25-3.21,6.96-.71,2.71-1.07,5.8-1.07,9.27,0,3.22.29,6.19.87,8.9.58,2.71,1.52,5.07,2.82,7.07,1.29,2,3.05,3.55,5.27,4.65,2.22,1.1,4.97,1.65,8.25,1.65,3.01,0,5.63-.5,7.85-1.5,2.22-1,4.05-2.45,5.47-4.36s2.49-4.21,3.17-6.92c.69-2.71,1.03-5.8,1.03-9.27Z"/>
    <path class="cls-1" d="M295.08,431.41c0,.49-.13.92-.4,1.28-.27.37-.73.67-1.39.92-.66.25-1.53.43-2.62.55-1.08.12-2.45.18-4.08.18-1.75,0-3.16-.06-4.24-.18-1.08-.12-1.94-.3-2.58-.55-.63-.24-1.08-.55-1.35-.92-.27-.37-.4-.79-.4-1.28v-7.55c-3.91,3.91-7.89,6.84-11.94,8.79-4.05,1.95-8.24,2.93-12.57,2.93-4.87,0-8.95-.73-12.26-2.2-3.31-1.47-5.98-3.47-8.01-6.01-2.04-2.54-3.49-5.48-4.36-8.83-.87-3.35-1.31-7.51-1.31-12.49v-40.01c0-.49.15-.92.44-1.28.29-.37.82-.67,1.59-.92.77-.24,1.8-.43,3.09-.55,1.3-.12,2.9-.18,4.8-.18s3.57.06,4.84.18,2.29.31,3.05.55c.77.24,1.31.55,1.63.92.32.37.48.79.48,1.28v36.93c0,3.42.24,6.03.71,7.84.48,1.81,1.2,3.36,2.18,4.65.98,1.29,2.22,2.3,3.73,3,1.51.71,3.26,1.06,5.27,1.06,2.54,0,5.09-.85,7.65-2.56,2.56-1.71,5.3-4.2,8.21-7.47v-43.45c0-.49.15-.92.44-1.28.29-.37.82-.67,1.59-.92.77-.24,1.79-.43,3.05-.55s2.88-.18,4.84-.18,3.57.06,4.84.18,2.27.31,3.01.55c.74.24,1.27.55,1.59.92.32.37.48.79.48,1.28v65.36Z"/>
    <path class="cls-1" d="M386.38,397.77c0,5.81-.67,11.05-2.02,15.72-1.35,4.67-3.32,8.64-5.91,11.91-2.59,3.27-5.82,5.79-9.68,7.55-3.86,1.76-8.28,2.64-13.25,2.64-2.06,0-3.95-.18-5.67-.55-1.72-.37-3.38-.93-5-1.69-1.61-.76-3.21-1.7-4.8-2.82-1.59-1.12-3.23-2.44-4.92-3.96v30.78c0,.49-.16.93-.48,1.32-.32.39-.86.72-1.63.99-.77.27-1.78.48-3.05.62-1.27.15-2.88.22-4.84.22s-3.57-.07-4.84-.22c-1.27-.15-2.29-.35-3.05-.62-.77-.27-1.31-.6-1.63-.99-.32-.39-.48-.83-.48-1.32v-91.3c0-.49.13-.92.4-1.28.26-.37.73-.67,1.39-.92.66-.24,1.53-.43,2.62-.55,1.08-.12,2.45-.18,4.09-.18s2.92.06,4.01.18c1.08.12,1.96.31,2.62.55.66.24,1.12.55,1.39.92.26.37.4.79.4,1.28v7.69c2.06-1.95,4.09-3.67,6.07-5.17,1.98-1.49,4.01-2.74,6.07-3.74s4.19-1.75,6.39-2.24c2.19-.49,4.53-.73,7.02-.73,5.18,0,9.6.94,13.25,2.82,3.65,1.88,6.62,4.46,8.92,7.73,2.3,3.27,3.98,7.08,5.04,11.43,1.06,4.35,1.59,8.99,1.59,13.92ZM365.6,399.09c0-2.78-.23-5.46-.67-8.02-.45-2.56-1.22-4.85-2.3-6.85-1.08-2-2.51-3.6-4.28-4.8-1.77-1.2-3.98-1.8-6.62-1.8-1.32,0-2.63.18-3.93.55-1.3.37-2.62.96-3.97,1.79-1.35.83-2.74,1.91-4.16,3.22s-2.94,2.96-4.52,4.91v21.54c2.8,3.27,5.47,5.8,8.01,7.58,2.54,1.78,5.18,2.67,7.93,2.67,2.59,0,4.8-.61,6.62-1.83,1.83-1.22,3.32-2.82,4.48-4.8,1.16-1.98,2.02-4.21,2.58-6.7.55-2.49.83-4.98.83-7.47Z"/>
  </g>
</svg>