<?xml version="1.0" encoding="UTF-8"?>
<svg id="Capa_1" data-name="Capa 1" xmlns="http://www.w3.org/2000/svg" viewBox="0 0 938.49 838.75">
  <defs>
    <style>
      .cls-1 {
        letter-spacing: -.01em;
      }

      .cls-2 {
        stroke-width: 13px;
      }

      .cls-2, .cls-3 {
        fill: #1d1d1b;
        stroke: #1d1d1b;
        stroke-miterlimit: 10;
      }

      .cls-4 {
        fill: #009fe3;
        font-size: 719.93px;
      }

      .cls-4, .cls-3 {
        font-family: Calibri-Bold, Calibri;
        font-weight: 700;
      }

      .cls-3 {
        font-size: 150.07px;
      }
    </style>
  </defs>
  <path class="cls-2" d="M931.99,643.07c0,2.42-.61,4.59-1.82,6.52-1.21,1.94-3.42,3.5-6.61,4.71-3.2,1.21-7.44,2.17-12.72,2.9-5.29.72-12.01,1.09-20.16,1.09s-14.54-.36-19.83-1.09c-5.29-.72-9.47-1.69-12.56-2.9-3.09-1.21-5.29-2.77-6.61-4.71-1.32-1.93-1.98-4.1-1.98-6.52v-381.4h-.66l-123.94,381.03c-.88,3.14-2.31,5.74-4.29,7.79-1.98,2.06-4.68,3.69-8.1,4.89-3.42,1.21-7.77,1.99-13.05,2.35-5.29.36-11.68.54-19.17.54s-13.88-.31-19.17-.91c-5.29-.61-9.64-1.57-13.06-2.9-3.42-1.32-6.11-2.95-8.1-4.89-1.98-1.93-3.31-4.22-3.97-6.88l-119.64-381.03h-.66v381.4c0,2.42-.61,4.59-1.82,6.52-1.21,1.94-3.47,3.5-6.78,4.71-3.3,1.21-7.55,2.17-12.72,2.9-5.18.72-11.85,1.09-19.99,1.09s-14.54-.36-19.83-1.09c-5.29-.72-9.53-1.69-12.72-2.9-3.2-1.21-5.4-2.77-6.61-4.71-1.21-1.93-1.82-4.1-1.82-6.52V225.46c0-12.32,2.97-21.73,8.92-28.25,5.95-6.52,13.88-9.78,23.8-9.78h56.85c10.13,0,18.84.91,26.11,2.72,7.27,1.81,13.55,4.83,18.84,9.06,5.29,4.23,9.69,9.78,13.22,16.66,3.52,6.88,6.61,15.39,9.25,25.53l92.54,279.26h1.32l95.84-278.53c2.86-10.14,6-18.71,9.42-25.72,3.41-7,7.38-12.68,11.9-17.02,4.51-4.35,9.86-7.42,16.03-9.24,6.17-1.81,13.33-2.72,21.48-2.72h58.5c5.95,0,11.07.85,15.37,2.54,4.3,1.69,7.82,4.17,10.58,7.43,2.75,3.26,4.85,7.24,6.28,11.95,1.43,4.71,2.15,10.09,2.15,16.12v417.62Z"/>
  <text class="cls-4" transform="translate(22.47 587.4)"><tspan x="0" y="0">+</tspan></text>
  <text class="cls-3" transform="translate(.5 658.29) scale(1.08 1)"><tspan x="0" y="0">g</tspan><tspan class="cls-1" x="71.15" y="0">r</tspan><tspan x="122.67" y="0">oup</tspan></text>
</svg>