<?xml version="1.0" encoding="UTF-8"?>
<svg id="Capa_1" data-name="Capa 1" xmlns="http://www.w3.org/2000/svg" viewBox="0 0 91.17 127.13">
  <defs>
    <style>
      .cls-1 {
        fill: #ea4335;
      }

      .cls-2 {
        fill: #fbbc04;
      }

      .cls-3 {
        fill: #4285f4;
      }

      .cls-4 {
        fill: #1a73e8;
      }

      .cls-5 {
        fill: #34a853;
      }
    </style>
  </defs>
  <path class="cls-4" d="M59.4,2.11c-4.34-1.34-9.08-2.11-13.91-2.11C31.57,0,19.04,6.15,10.66,15.84l21.51,17.57L59.4,2.11Z"/>
  <path class="cls-1" d="M10.66,15.84C4.05,23.52,0,33.51,0,44.26c0,8.35,1.68,15.07,4.54,21.12l27.63-31.97S10.66,15.84,10.66,15.84Z"/>
  <path class="cls-3" d="M45.58,27.37c9.67,0,17.46,7.59,17.46,17,0,4.13-1.58,7.97-4.14,10.95,0,0,13.71-15.94,27.13-31.4-5.53-10.37-15.1-18.24-26.64-21.8l-27.23,31.3c3.26-3.65,7.99-6.05,13.42-6.05"/>
  <path class="cls-2" d="M45.58,61.26c-9.67,0-17.46-7.59-17.46-17,0-4.13,1.48-7.97,4.05-10.85l-27.63,31.97c4.74,10.18,12.63,18.44,20.72,28.71l33.64-38.89c-3.26,3.74-7.99,6.05-13.32,6.05"/>
  <path class="cls-5" d="M58.31,104.85c15.19-23.14,32.86-33.61,32.86-60.49,0-7.39-1.87-14.31-5.13-20.45L25.26,94.1c2.57,3.26,5.23,7.01,7.79,10.85,9.27,13.92,6.71,22.18,12.63,22.18s3.35-8.35,12.63-22.28"/>
</svg>