<?xml version="1.0" standalone="no"?>
<!DOCTYPE svg PUBLIC "-//W3C//DTD SVG 20010904//EN"
 "http://www.w3.org/TR/2001/REC-SVG-20010904/DTD/svg10.dtd">
<svg version="1.0" xmlns="http://www.w3.org/2000/svg"
 width="958.000000pt" height="960.000000pt" viewBox="0 0 958.000000 960.000000"
 preserveAspectRatio="xMidYMid meet">

<g transform="translate(0.000000,960.000000) scale(0.100000,-0.100000)"
fill="#000000" stroke="none">
<path d="M4335 7167 c-86 -34 -146 -90 -187 -174 l-23 -48 -3 -2071 -3 -2070
24 -35 c28 -42 69 -57 202 -75 131 -17 285 -17 416 1 126 16 168 32 198 73
l21 30 0 1825 c0 1028 4 1828 9 1831 8 6 28 -41 51 -119 6 -22 15 -49 20 -60
5 -11 20 -54 35 -95 14 -41 29 -84 34 -95 4 -11 23 -65 40 -120 18 -55 36
-109 41 -120 10 -24 45 -132 66 -200 9 -27 20 -58 26 -69 5 -10 16 -42 24 -70
8 -28 19 -60 24 -71 12 -27 78 -219 95 -275 7 -25 30 -90 50 -145 20 -55 47
-134 60 -175 14 -41 29 -84 34 -95 4 -11 18 -51 30 -90 12 -38 26 -79 31 -90
5 -11 29 -83 55 -160 25 -77 50 -149 55 -160 5 -11 21 -56 35 -100 14 -44 30
-88 35 -97 6 -10 10 -27 10 -37 0 -11 5 -23 10 -26 6 -3 10 -15 10 -26 0 -10
4 -27 10 -37 5 -9 30 -80 55 -157 25 -77 50 -149 55 -160 5 -11 23 -60 39
-110 17 -49 64 -189 106 -310 42 -121 79 -229 82 -240 2 -11 8 -29 13 -40 5
-11 16 -41 26 -68 15 -43 71 -107 94 -107 5 0 21 -5 37 -12 49 -21 194 -36
354 -36 238 0 353 23 408 82 19 20 68 140 93 226 5 19 14 39 19 45 5 5 9 17 9
27 0 10 4 26 10 36 5 9 16 37 24 62 8 25 31 90 51 145 66 179 147 409 152 433
3 12 9 25 14 28 5 3 9 14 9 25 0 10 4 27 10 37 5 9 16 37 24 62 25 77 56 164
66 185 5 11 27 72 49 135 21 63 58 167 81 230 23 63 44 124 47 135 2 11 8 29
13 40 4 11 15 40 25 65 10 25 21 54 25 65 5 11 11 29 13 40 3 11 22 65 42 120
33 90 124 346 160 450 24 72 56 160 65 180 5 11 17 43 26 70 44 128 61 175 67
182 4 3 7 13 7 21 0 8 27 90 61 181 34 91 74 205 89 253 16 48 33 95 39 105 5
10 15 39 23 66 7 26 18 47 25 47 11 0 13 -348 13 -1830 0 -1283 3 -1836 11
-1853 28 -61 194 -98 438 -97 91 1 257 20 311 36 43 13 72 37 86 71 12 27 14
369 14 2052 0 1388 -3 2037 -11 2073 -28 142 -83 209 -209 255 -26 10 -142 13
-467 13 -439 0 -471 -2 -568 -40 -90 -34 -186 -131 -243 -244 -33 -66 -92
-217 -92 -236 0 -9 -4 -20 -9 -26 -5 -5 -21 -44 -35 -88 -15 -43 -35 -97 -46
-119 -11 -22 -20 -47 -20 -54 0 -7 -4 -21 -9 -31 -6 -9 -31 -73 -56 -142 -46
-122 -55 -146 -74 -192 -5 -13 -20 -52 -32 -88 -12 -36 -31 -85 -41 -110 -11
-25 -26 -65 -35 -90 -8 -25 -22 -63 -32 -85 -10 -22 -30 -76 -46 -120 -15 -44
-31 -84 -36 -89 -5 -6 -9 -18 -9 -28 0 -10 -4 -26 -9 -36 -14 -25 -71 -176
-71 -185 0 -5 -6 -23 -14 -40 -8 -18 -35 -88 -61 -157 -26 -69 -51 -134 -56
-145 -5 -11 -24 -63 -43 -115 -19 -52 -67 -178 -106 -280 -39 -102 -75 -196
-80 -210 -4 -14 -23 -63 -40 -110 -18 -47 -34 -93 -37 -102 -10 -35 -31 -17
-52 45 -12 34 -33 89 -46 122 -13 33 -33 89 -45 125 -12 36 -28 79 -35 95 -7
17 -16 41 -20 55 -8 29 -52 150 -70 195 -7 17 -22 57 -33 90 -11 33 -37 105
-57 160 -20 55 -40 111 -45 125 -4 14 -20 57 -35 95 -15 39 -42 113 -60 165
-51 147 -104 293 -114 315 -5 11 -16 40 -24 65 -9 25 -32 90 -52 145 -38 103
-110 301 -125 345 -11 32 -68 188 -115 315 -20 55 -57 158 -81 228 -43 125
-98 237 -139 288 -50 61 -149 129 -219 151 -114 35 -160 38 -596 37 -308 0
-444 -4 -465 -12z"/>
<path d="M1817 6882 c-9 -2 -17 -8 -17 -13 0 -5 -15 -9 -34 -9 -19 0 -38 -4
-41 -10 -3 -5 -14 -10 -23 -10 -46 0 -47 -10 -52 -620 l-5 -575 -525 -5 c-479
-5 -528 -7 -553 -22 -35 -23 -49 -51 -60 -118 -13 -74 -13 -295 0 -346 13 -56
47 -108 78 -122 19 -9 168 -12 540 -12 316 0 516 -4 520 -10 3 -5 5 -263 5
-574 0 -383 3 -572 10 -588 24 -51 111 -69 334 -68 205 0 240 8 289 63 l28 31
-1 564 c-1 310 2 568 7 573 4 4 245 9 535 11 501 3 527 4 547 22 21 19 30 63
11 51 -5 -3 -10 -1 -10 5 0 6 8 9 18 6 15 -5 20 4 31 57 7 34 15 88 17 120 6
67 -21 260 -36 265 -5 2 -10 14 -10 27 0 15 -11 32 -29 44 -29 21 -39 21 -555
21 -414 0 -526 3 -526 13 0 6 0 260 0 563 0 303 -2 559 -6 568 -3 9 -10 13
-15 10 -5 -3 -6 1 -3 9 7 20 -47 57 -83 57 -16 0 -35 6 -41 12 -9 9 -58 13
-171 13 -86 0 -165 -1 -174 -3z m96 -29 c-7 -2 -21 -2 -30 0 -10 3 -4 5 12 5
17 0 24 -2 18 -5z m317 -23 c0 -5 -7 -10 -15 -10 -8 0 -15 5 -15 10 0 6 7 10
15 10 8 0 15 -4 15 -10z m-497 -27 c-7 -2 -19 -2 -25 0 -7 3 -2 5 12 5 14 0
19 -2 13 -5z m424 1 c-3 -3 -12 -4 -19 -1 -8 3 -5 6 6 6 11 1 17 -2 13 -5z
m108 -60 c-9 -9 -18 -14 -21 -11 -9 9 6 27 22 27 13 0 13 -2 -1 -16z m-11
-1099 c3 -8 1 -15 -4 -15 -6 0 -10 7 -10 15 0 8 2 15 4 15 2 0 6 -7 10 -15z
m-579 -24 c-3 -6 -11 -11 -17 -11 -6 0 -6 6 2 15 14 17 26 13 15 -4z m-1008
-17 c-3 -3 -12 -4 -19 -1 -8 3 -5 6 6 6 11 1 17 -2 13 -5z m101 -1 c-10 -2
-26 -2 -35 0 -10 3 -2 5 17 5 19 0 27 -2 18 -5z m1635 0 c-7 -2 -21 -2 -30 0
-10 3 -4 5 12 5 17 0 24 -2 18 -5z m-1846 -55 c-3 -8 -6 -5 -6 6 -1 11 2 17 5
13 3 -3 4 -12 1 -19z m-7 -90 c0 -18 -2 -20 -9 -8 -6 8 -7 18 -5 22 9 14 14 9
14 -14z m2890 -143 c0 -25 -3 -45 -8 -45 -4 0 -6 20 -4 45 2 25 6 45 8 45 2 0
4 -20 4 -45z m-2903 -97 c-2 -13 -4 -3 -4 22 0 25 2 35 4 23 2 -13 2 -33 0
-45z m14 -59 c-6 -16 -10 -18 -10 -7 -1 22 12 55 16 42 2 -6 -1 -22 -6 -35z
m2839 -89 c0 -5 -4 -10 -10 -10 -5 0 -10 5 -10 10 0 6 5 10 10 10 6 0 10 -4
10 -10z m-1603 -1236 c-3 -3 -12 -4 -19 -1 -8 3 -5 6 6 6 11 1 17 -2 13 -5z
m420 0 c-3 -3 -12 -4 -19 -1 -8 3 -5 6 6 6 11 1 17 -2 13 -5z"/>
<path d="M430 3488 c-68 -29 -96 -53 -121 -100 -27 -53 -26 -148 3 -200 18
-32 20 -42 10 -56 -61 -85 -68 -131 -27 -180 30 -36 31 -47 6 -64 -28 -20 -61
-79 -61 -110 0 -43 31 -96 69 -120 76 -45 270 -63 379 -34 122 33 183 93 190
187 5 70 -17 114 -75 146 -43 24 -160 43 -267 43 -64 0 -75 3 -95 24 -22 23
-22 25 -6 50 13 19 21 23 34 17 56 -29 175 -18 246 23 21 11 51 38 68 58 26
32 29 44 29 100 -1 35 -2 72 -4 83 -2 17 4 21 37 25 l40 5 0 50 0 50 -110 6
c-60 4 -150 10 -200 13 -81 6 -96 5 -145 -16z m168 -99 c64 -22 84 -112 38
-166 -22 -25 -31 -28 -86 -28 -55 0 -64 3 -86 28 -43 50 -26 129 35 162 32 17
58 18 99 4z m79 -526 c29 -19 32 -82 6 -105 -28 -24 -81 -38 -142 -38 -103 0
-152 56 -107 123 19 28 29 33 76 37 76 7 140 0 167 -17z"/>
<path d="M1290 3494 c-14 -10 -42 -33 -62 -52 -40 -38 -44 -36 -50 23 -3 29
-5 30 -58 33 -30 1 -61 -2 -69 -7 -12 -8 -14 -60 -12 -318 2 -223 6 -310 14
-315 7 -5 44 -7 82 -6 l70 3 5 201 5 200 29 35 c53 63 110 84 158 58 12 -7 24
-7 29 -2 16 16 13 144 -3 154 -23 15 -112 10 -138 -7z"/>
<path d="M1677 3486 c-83 -35 -123 -69 -160 -139 -31 -60 -32 -66 -32 -182 0
-104 3 -125 22 -161 36 -67 70 -101 131 -130 51 -25 68 -28 172 -28 129 -1
171 11 245 70 151 119 145 444 -10 540 -94 59 -265 72 -368 30z m230 -126 c45
-27 64 -71 70 -159 7 -97 -7 -148 -52 -191 -34 -33 -40 -35 -105 -35 -64 0
-71 2 -103 33 -40 39 -57 88 -57 167 0 85 17 131 64 171 35 30 46 34 95 34 38
0 66 -6 88 -20z"/>
<path d="M3421 3493 c-19 -8 -54 -28 -77 -44 -55 -37 -64 -37 -64 5 0 38 -12
46 -71 46 -84 0 -78 33 -79 -439 0 -482 -7 -451 90 -451 87 0 90 5 90 166 0
74 3 134 7 134 3 0 29 -15 57 -32 47 -30 57 -33 131 -32 114 0 182 40 231 134
59 112 58 294 -2 412 -21 40 -62 78 -108 99 -50 23 -156 24 -205 2z m99 -136
c43 -21 70 -90 70 -179 0 -91 -15 -133 -59 -171 -56 -47 -127 -33 -190 38 -30
35 -31 38 -31 133 l0 98 43 41 c23 23 51 43 62 46 38 9 80 7 105 -6z"/>
<path d="M2338 3489 c-16 -9 -18 -31 -18 -231 0 -234 6 -280 46 -335 44 -59
89 -78 184 -78 75 0 91 4 132 28 25 15 52 34 58 42 20 24 40 18 40 -13 0 -40
17 -52 71 -52 85 0 79 -25 79 319 0 225 -3 310 -12 319 -13 13 -97 16 -135 6
-23 -6 -23 -7 -23 -215 l0 -209 -50 -39 c-60 -47 -81 -55 -125 -47 -75 14 -96
85 -94 327 0 93 -2 173 -6 179 -8 13 -125 12 -147 -1z"/>
</g>
</svg>
